<svg id="Layer_1" data-name="Layer 1" xmlns="http://www.w3.org/2000/svg" viewBox="0 0 1920 1080">
  <defs>
    <style>
      .cls-1 {
        fill: #fff;
      }

      .cls-2 {
        fill: #a555ec;
      }
    </style>
  </defs>
  <path class="cls-1" d="M699.25,780.67v-56.8c0-6.66-.78-10.18-5.09-10.18H652.25c-5.09,0-7,1.17-7,6.26v55.63c0,14.88-3.53,41.12-20.37,41.12-19.19,0-23.5-18.41-23.5-41.12V602.84c0-6.27,3.92-27.42,22.33-27.42,15.66,0,21.54,16.84,21.54,28.2v68.55c0,4.31.78,7.83,5.09,7.83l44.66.39c2.74,0,4.3-.39,4.3-7.44V605.19c0-19.59,6.66-29.77,17.63-29.77s26.24,8.22,26.24,30.94v174.7c0,14.49-7.44,35.64-24.28,35.64C701.21,816.7,699.25,794.77,699.25,780.67Z"/>
  <path class="cls-1" d="M752.11,730.14v-121c0-10.58,3.53-33.69,20.76-33.69s23.9,6.27,23.9,34.47V727.4c0,25.46-3.14,53.66,33.29,53.66,34.47,0,32.51-43.87,32.51-75.6V608.71c0-10.57,3.13-34.07,19.59-34.07,16.05,0,24.67,10.18,24.67,33.68v112c0,59.14-26.63,97.92-78.34,97.92C781.1,818.27,752.11,782.62,752.11,730.14Z"/>
  <path class="cls-1" d="M920.13,776.36V596.18c0-14.1,9.8-20.76,18.8-20.76,13.71,0,26.25,5.09,36,24.68,18.41,36.42,30.55,62.67,48.18,99.09,2.74,5.88,5.48,9.8,7.83,9.8,1.57,0,2.74-2.35,2.74-7V605.58c0-16.84,2.35-30.16,22.33-30.16,19.58,0,19.19,12.93,19.19,21.15V772.44c0,25.85-3.52,44.26-15.27,44.26-10.19,0-20-8.61-24.68-16.06s-47.39-78.73-65-120.64c-2.35-5.87-3.92-8.62-5.49-8.62-1.95,0-2.74,8.23-2.74,26.25v62.28c0,40.73-6.26,56.79-21.15,56.79C922.87,816.7,920.13,794.38,920.13,776.36Z"/>
  <path class="cls-1" d="M1127.32,801v-190c-12.92,0-40.74,1.57-40.74-17.62,0-11.36,8.23-18,19.2-18h90.09c8.22,0,12.92,9,12.92,16.45,0,18.41-20.37,19.19-34.07,19.19h-3.14V798.29c0,12.14-13.32,73.86-23.89,73.86C1139.46,872.15,1127.32,810.43,1127.32,801Z"/>
  <path class="cls-1" d="M1220.14,770.48V610.28c0-27.42,17.23-34.86,30.55-34.86h76.38c9.4,0,14.1,8.62,14.1,17.62s-4.31,19.59-12.53,20l-55.23,1.57c-5.09,0-8.62,4.31-8.62,9.4v36c0,7.84,2.74,11.76,8.62,11.76l46.61-.4c10.19,0,12.93,9.8,12.93,20.37,0,6.66-2,15.28-12.54,15.67l-45,1.57c-8.23.39-10.58,3.91-10.58,12.14V747c0,21.94-.78,34.86,25.85,34.86,17.24,0,35.65-11.75,45.83-11.75,7,0,10.19,13.32,10.19,21.15,0,21.15-43.48,27-59.15,27C1248,818.27,1220.14,808.09,1220.14,770.48Z"/>
  <path class="cls-1" d="M1456.32,799.47c-7-14.1-30.55-74.82-43.87-74.82h-3.92c-2.74,0-5.09,4.31-5.09,10.58v54.84c0,16.06-8.62,26.63-23.5,26.63-16.06,0-19.59-18-19.59-27V610.28c0-27,2.74-34.86,25.86-34.86h32.51c34.46,0,68.93,20,68.93,67,0,40-22.32,62.67-39.56,68.94a3.41,3.41,0,0,0-2.35,3.13c0,.78.4,2,2,3.53,21.54,21.54,48.18,47.78,48.18,83,0,10.58-11,15.67-20.37,15.67C1463.76,816.7,1459.84,806.52,1456.32,799.47Zm-7.44-157.07c0-20.37-6.66-30.95-27-31.73l-9.4-.39c-6.66-.39-7.44,1.57-7.44,9.4V682c0,3.53,2.35,5.09,7,5.09h8.61C1436.34,687.05,1448.88,667.86,1448.88,642.4Z"/>
  <path class="cls-2" d="M574.57,380.43c-.35.71-1.39,2.88-3.13,6.53s-3.31,6.88-4.7,9.66a65.24,65.24,0,0,1-2.61,6.53,63.83,63.83,0,0,0-2.61,6.53q6.27-8.88,13.84-18.28A145.05,145.05,0,0,1,591,374.69a65.79,65.79,0,0,1,15.93-11q7.83-3.64,14.1-1.56a58.7,58.7,0,0,1,15.67,9.4,53.07,53.07,0,0,1,10.44,11.75q4.7,7.05,5.22,17.49a143.23,143.23,0,0,1-2.09,20.63,202,202,0,0,1-6.78,28.46,211.71,211.71,0,0,1-12.28,30.55,133.38,133.38,0,0,1-18,27.68,87.57,87.57,0,0,1-24,19.84,54.12,54.12,0,0,1-30.29,6.53,23.75,23.75,0,0,1-11.49-3.14,32,32,0,0,1-9.14-8.09q-4.44-5.49-7-15.93a477.63,477.63,0,0,0-10.44,55.88q-4.18,26.1-5.75,48.3t-1.57,39.43q0,17.23.53,28.72a132.19,132.19,0,0,1,0,16.71,21.09,21.09,0,0,1-6.53,12.54,44.13,44.13,0,0,1-12.53,8.35,62,62,0,0,1-14.36,4.44A70.74,70.74,0,0,1,469.09,723a7.27,7.27,0,0,1-6.27-2.88,22.09,22.09,0,0,1-3.13-6,22.43,22.43,0,0,1-1.57-8.88q.53-25.59,4.18-56.4,3.13-26.62,9.14-62.14a737.58,737.58,0,0,1,18-77.81c.7-3.13,1.57-6.62,2.61-10.44s2.09-7.84,3.14-12q1.05-3.65,2.35-7.31t2.35-7.83q2.09-6.78,3.65-13.32a113.61,113.61,0,0,1,3.66-12.27q1.56-5.74,2.87-10.44c.87-3.14,1.83-6.09,2.87-8.88q2.09-7.31,4.44-14.36t3.92-11.75a51.23,51.23,0,0,0,2.61-7.84q2.61-8.34,5.48-15.92t5.49-13.32c1.73-4.18,3.3-8.17,4.7-12a1.5,1.5,0,0,1,.52-1l1-2.09a12.38,12.38,0,0,1,3.4-4.7,5.24,5.24,0,0,1,5.48-1.05,60.29,60.29,0,0,1,11.75,5,53.39,53.39,0,0,1,14.36,11.23l.52.52,1.05,2.09a18.51,18.51,0,0,1,1,5.75q0,5.22-3.65,12a1.06,1.06,0,0,1-.26.78A1.06,1.06,0,0,0,574.57,380.43Zm36.56,8.36q-14.1,12-27.68,25.07a316.75,316.75,0,0,0-23,24.54,137.59,137.59,0,0,0-18.27,27.15c-.36,1.4-.71,2.8-1.05,4.18s-.7,2.79-1,4.18q.51,2.63,1.83,8.62a88.23,88.23,0,0,0,3.65,12.27,46.16,46.16,0,0,0,6.27,11.49,13.32,13.32,0,0,0,9.66,5.74q4.17.51,10.44-6.26a95,95,0,0,0,12.54-18,268.82,268.82,0,0,0,12.27-25.33,234,234,0,0,0,9.92-27.94,179.06,179.06,0,0,0,5.48-26.11Q613.75,396.12,611.13,388.79Z"/>
  <path class="cls-2" d="M850.3,442.58q5.22,1.56,5.22,6.26a12.87,12.87,0,0,1-1,4.7q-3.13,6.79-9.14,18t-13.58,22.72A227,227,0,0,1,815.57,516a65.93,65.93,0,0,1-18,15.4,28.79,28.79,0,0,1-11.49,4.44,42.29,42.29,0,0,1-10.45.26A46,46,0,0,1,765.18,534q-10.45-4.69-14.36-14.62t-3.4-23.5q-12,18.29-26.37,28.73T693.64,534a45.83,45.83,0,0,1-18.54-5.22Q666,524,661,513.34t-4.18-28.46q.78-17.76,10.7-44.39T690,397.41q12.53-16.46,25.07-25.07t24.8-10.18q12.27-1.57,21.67,2.09,7.85,3.13,11.75,8.87a37,37,0,0,1,5.49,12.54q2.6-5.22,4.69-10.45c.7-1.38,1.39-2.78,2.1-4.18a13.05,13.05,0,0,1,3.13-5.22,18.3,18.3,0,0,1,3.65-3.65,4.55,4.55,0,0,1,4.7-.53,69.05,69.05,0,0,1,12.54,6.27,61,61,0,0,1,14.62,12.53,9.42,9.42,0,0,1,2.61,5.23,18.62,18.62,0,0,1-.26,6.78,34.91,34.91,0,0,1-3.92,9.93c-1.39,2.44-3.48,6.26-6.26,11.49s-5.84,11.22-9.14,18-6.53,13.93-9.66,21.41a167.46,167.46,0,0,0-7.32,20.89q-2.61,9.68-2.08,16.45T793.9,499c3.83,1.38,7.91.26,12.27-3.4A87.28,87.28,0,0,0,819,482a127.38,127.38,0,0,0,11.22-17.23l8.1-14.88a9.11,9.11,0,0,1,2.61-4.18A11.18,11.18,0,0,1,850.3,442.58ZM761,431.09a95.26,95.26,0,0,0,3.65-17.49,27.06,27.06,0,0,0-.78-10.45q-1.3-3.91-3.13-5.22a24.54,24.54,0,0,0-2.87-1.83,15.32,15.32,0,0,0-5.23-.26c-2.43.18-5.66,1.83-9.66,5s-8.61,8.36-13.83,15.67-11.15,18.1-17.76,32.37q-9.93,21.95-12,33.43c-1.4,7.66-1.75,13.39-1,17.23q1.57,6.27,6.79,7.31,9.92,1.56,19.33-9.14a151.08,151.08,0,0,0,17.23-24.28,303.4,303.4,0,0,0,17.23-36.56,1.5,1.5,0,0,1,.52-1Z"/>
  <path class="cls-2" d="M891,421.17q-2.62,6.78-5.22,14.1t-5.23,14.62q9.92-16.71,21.67-34.21a298,298,0,0,1,23.5-30.81q11.76-13.31,23-20.1t20.63-2.09A102.81,102.81,0,0,1,980.85,369a62.67,62.67,0,0,1,13,11,16.26,16.26,0,0,1,2.09,5.75,22.37,22.37,0,0,1,0,6.78,29.3,29.3,0,0,1-3.65,9.93q-3.14,4.69-10.19,18.27t-13.84,29.25q-1.56,3.14-6.26,3.13a34.57,34.57,0,0,1-9.92-1.56c-3.49-1-7-2.26-10.45-3.66l-7.83-3.13c-2.79-1.39-4.36-3.05-4.7-5a26.46,26.46,0,0,1-.52-4.44q3.12-8.88,6.26-17.24t6.27-15.66l-1,.52a269.36,269.36,0,0,0-28.72,34.46,454.86,454.86,0,0,0-26.11,41.78q-14.1,25.06-26.11,58v1.56q-.52,3.14-2.35,3.92a8,8,0,0,1-2.87.78q-10.46-1.05-16.45-4.7a41.18,41.18,0,0,1-9.66-7.83,8.54,8.54,0,0,1-2.61-6.26,4.7,4.7,0,0,1,0-3.14,178.66,178.66,0,0,1,2.61-21.67q2.1-11.75,4.7-23.5T838,453.54q2.87-11,5.48-19.84,2.61-7.31,5-14.1c1.56-4.52,2.87-8.36,3.91-11.49a13,13,0,0,0,1.31-3.91,12.69,12.69,0,0,1,1.3-3.92q2.61-8.36,5.49-15.93T866,371q2.61-6.25,4.7-12a1.5,1.5,0,0,1,.52-1,9.19,9.19,0,0,1,1.05-2.61,14.17,14.17,0,0,1,3.39-4.18,5.23,5.23,0,0,1,5.48-1,60,60,0,0,1,11.75,5,46.21,46.21,0,0,1,13.84,11.23,15.83,15.83,0,0,1,1.57,2.08,22.43,22.43,0,0,1,1,2.61,11.57,11.57,0,0,1,.53,3.66c0,3.48-1.23,7.49-3.66,12a1.06,1.06,0,0,1-.26.78,1.06,1.06,0,0,0-.26.79c-.7.7-1.83,2.87-3.4,6.53s-3,6.87-4.43,9.66-2.7,5.74-3.92,8.87S891.72,419.08,891,421.17Z"/>
  <path class="cls-2" d="M1061.26,374.69a427.76,427.76,0,0,0-16.19,42.3q-7.32,22.45-13,48-3.13,15.15-2.09,24.55a1,1,0,0,0,.26.78,2.12,2.12,0,0,1,.26,1.31q1,5.73,5.22,7.31,5.74,1.56,12.54-3.66A64.25,64.25,0,0,0,1061,481.74a201.39,201.39,0,0,0,11.23-17.49q5.2-9.13,7.83-14.88a16.32,16.32,0,0,1,3.14-4.18q3.12-3.13,8.87-2.61c3.48.35,5.23,2.26,5.23,5.74a17.31,17.31,0,0,1-1,5.22q-4.18,8.9-13,24.81a271.54,271.54,0,0,1-19.85,30.55c-2.09,2.09-4,4.18-5.74,6.27a75,75,0,0,1-10.45,10.44,4.62,4.62,0,0,1-1,.78,2.86,2.86,0,0,0-1,1.31,82.8,82.8,0,0,1-7.83,3.91,31.09,31.09,0,0,1-9.4,2.35c-1.39.35-3.83.17-7.31-.52a24.19,24.19,0,0,1-15.14-11.23,69.54,69.54,0,0,1-7.84-18.53,137.25,137.25,0,0,1-3.13-25.07,80,80,0,0,1-.26-11c.18-3.47.44-7.13.78-11a221.77,221.77,0,0,1,3.13-22.2,180.29,180.29,0,0,1,4.7-19.06,157.19,157.19,0,0,1,5.23-18.27q9.91-28.72,20.36-53.53t20.89-46.74q-35.52,0-70.5-.26t-70.5.26q-5.73,0-7.31-2.61a13.44,13.44,0,0,1-1.56-3.13q-1.57-9.4,1.56-15.93A22.69,22.69,0,0,1,910.61,265a44.27,44.27,0,0,1,14.88-5,81.89,81.89,0,0,1,17.23-.78q31.34,1,61.62,2.2t61.1,2.7q8.88-16.38,16.45-29.7t13.32-22.2q6.26-10.44,12-18.28a31.7,31.7,0,0,1,6.26-5.74,18,18,0,0,1,6-3.13c2.26-.7,4.61-.17,7,1.56a63,63,0,0,1,8.36,7.31,58,58,0,0,1,9.13,12,43.18,43.18,0,0,1,5.22,14.36,20,20,0,0,1-2.34,13.84q-2.62,4.17-8.88,12.53t-15.67,20.36q17.75,1.11,46,1.92t61.62,1.93q33.4,1.1,69.71,2.19t69.72,1.92q33.41.82,62.14,1.64l47,1.37a38.13,38.13,0,0,1,5,.52,40.67,40.67,0,0,1,6.53,1.57,32.44,32.44,0,0,1,5.48,2.35,3.86,3.86,0,0,1,2.35,3.39c0,1.4-1.57,2.61-4.7,3.66a56.79,56.79,0,0,1-10.7,2.35q-6,.78-12.28,1c-4.17.18-7.49.27-9.92.27q-18.29,1-46.74,1.56t-62.14,1q-33.67.53-70,.78t-70,.26H1102.52q-10.45,15.66-20.89,35T1061.26,374.69Z"/>
  <path class="cls-2" d="M1139.78,563.16q8.48-13.73,18.09-27.11-2.62-24.54-1.57-37.59a124.53,124.53,0,0,1-26.37,27.41q-14.37,10.7-30.55,8.62h-1q-14.62-2.1-20.37-12a50.92,50.92,0,0,1-6.79-20.88,90.49,90.49,0,0,1,.79-18q1.3-9.13,2.35-15.4,5.22-19.85,9.39-33.95,2.08-7.31,4.45-14.1t3.91-12a20.6,20.6,0,0,0,2.61-7.31q2.61-8.34,5.49-15.93t5.48-13.31q2.61-6.27,4.7-12a1.5,1.5,0,0,1,.52-1.05,9.14,9.14,0,0,1,1-2.61,30,30,0,0,1,3.92-4.18,5.23,5.23,0,0,1,5.48-1,54.93,54.93,0,0,1,11.49,5,60.28,60.28,0,0,1,14.1,10.71,5.65,5.65,0,0,1,1,2.08,18.67,18.67,0,0,1,1,2.87,14.67,14.67,0,0,1,.52,3.92,31.19,31.19,0,0,1-.52,5.48,16.91,16.91,0,0,1-3.13,6.53,2.15,2.15,0,0,1-.52,1.57c-.35.7-1.4,2.87-3.14,6.53s-3.31,6.88-4.7,9.66c-1,2.79-2.26,5.74-3.65,8.88s-2.44,5.74-3.14,7.83q-3.64,9.93-7.31,20.63T1116.09,465q-1,4.19-3.13,12.54t-1,14.1a13.6,13.6,0,0,0,1.83,6,11.19,11.19,0,0,0,2.88,2.87,6.38,6.38,0,0,0,3.65,1.57q7.31,1,15.41-8.62a145.25,145.25,0,0,0,15.14-22.19,267.35,267.35,0,0,0,12.27-24.55q5.22-12,6.79-16.18,4.17-12,8.36-22.72t7.83-19.06q4.17-9.41,8.35-17.23a13,13,0,0,1,3.14-5.22,18.09,18.09,0,0,1,3.65-3.66,4.52,4.52,0,0,1,4.7-.52,68.53,68.53,0,0,1,12.54,6.26,67.54,67.54,0,0,1,14.62,12,12.42,12.42,0,0,1,2.61,5.75,18.68,18.68,0,0,1-.26,6.79,35.28,35.28,0,0,1-3.92,9.92c-1,1.75-2.7,4.7-5,8.88s-4.7,9-7.31,14.36-5.4,11.14-8.35,17.23a171.91,171.91,0,0,0-7.58,18q-2.61,7.83-5.74,20.36c-.35,1.75-.61,3.4-.79,5a19.17,19.17,0,0,1-1.3,5l1.56-1.57q4.71-4.69,9.4-9.14t9.4-8.62q9.93-8.86,19.06-16.19t14.89-11.48a17.55,17.55,0,0,1,4.7-2.09q4.69-1.05,6.79,3.65a14.15,14.15,0,0,1-1.57,9.92,33,33,0,0,1-3.13,3.66L1244.82,469A116.37,116.37,0,0,0,1231,481.74q-7.32,6.79-14.36,14.1T1202.26,512a36.29,36.29,0,0,0-4.7,5.75,76.84,76.84,0,0,1-4.7,6.26c0,1.74.08,3.66.26,5.75s.26,4.17.26,6.26a54.53,54.53,0,0,1,.78,5.75,51.73,51.73,0,0,0,.79,5.74,326.17,326.17,0,0,1,2.61,32.64A214.2,214.2,0,0,1,1196,613.6a188.24,188.24,0,0,1-6.53,31.07,80.34,80.34,0,0,1-12.27,25.07q-.53,1.56-3.65,4.7a53.16,53.16,0,0,1-4.7,5.22.46.46,0,0,0-.53.52,82.82,82.82,0,0,1-12.79,7.58,32,32,0,0,1-15.93,2.87,46.7,46.7,0,0,1-13.31-2.61,44.83,44.83,0,0,1-8.62-4.18,14.29,14.29,0,0,1-3.66-2.61c-1-1.05-2.09-2.09-3.13-3.13q-7.32-9.4-6.27-25.07t7.84-35a249.54,249.54,0,0,1,18.8-40.47l.88-1.56m34.11,7q-1.07-4.18-1.57-7.57t-1.57-7.57q-10.46,16.71-18,31.59t-12.8,26.37q-.52,1.05-2.35,6.53a75.25,75.25,0,0,0-2.87,12,48.59,48.59,0,0,0-.26,13.32q.78,6.78,6,9.92,2.09,2.08,7.31,2.09a23.52,23.52,0,0,0,13.32-3.65,28.11,28.11,0,0,0,8.88-9.67,46.31,46.31,0,0,0,5-13.84,122,122,0,0,0,2.09-16.19Q1170.4,607.07,1166.23,583.05Z"/>
  <path class="cls-1" d="M1127.65,611.06c-12.93,0-40.74,1.57-40.74-17.62,0-11.36,8.22-18,19.19-18h90.09c8.23,0,12.93,9,12.93,16.45,0,18.41-20.37,19.19-34.08,19.19h-3.13"/>
  <rect class="cls-1" x="1127.26" y="610.64" width="22.24" height="33.45"/>
</svg>
