<svg width="191" height="28" viewBox="0 0 191 28" fill="none" xmlns="http://www.w3.org/2000/svg">
<path d="M0.736008 27V0.720001H9.05201C10.804 0.720001 12.316 1.044 13.588 1.692C14.884 2.34 15.892 3.252 16.612 4.428C17.332 5.58 17.692 6.948 17.692 8.532C17.692 10.26 17.248 11.784 16.36 13.104C15.496 14.424 14.32 15.36 12.832 15.912L18.052 27H13.012L8.44001 16.56H5.23601V27H0.736008ZM5.23601 12.6H9.05201C10.324 12.6 11.32 12.252 12.04 11.556C12.76 10.86 13.12 9.9 13.12 8.676C13.12 7.428 12.76 6.456 12.04 5.76C11.32 5.04 10.324 4.68 9.05201 4.68H5.23601V12.6Z" fill="white"/>
<path d="M28.1899 27.36C26.1499 27.36 24.5419 26.82 23.3659 25.74C22.1899 24.66 21.6019 23.208 21.6019 21.384C21.6019 19.44 22.2499 17.94 23.5459 16.884C24.8419 15.828 26.6779 15.3 29.0539 15.3H33.9859V13.608C33.9859 12.648 33.6739 11.904 33.0499 11.376C32.4259 10.824 31.5739 10.548 30.4939 10.548C29.5099 10.548 28.6939 10.764 28.0459 11.196C27.3979 11.628 27.0139 12.216 26.8939 12.96H22.5019C22.7179 11.088 23.5579 9.6 25.0219 8.496C26.4859 7.392 28.3579 6.84 30.6379 6.84C33.0619 6.84 34.9699 7.452 36.3619 8.676C37.7779 9.876 38.4859 11.508 38.4859 13.572V27H34.1299V23.544H33.4099L34.1299 22.572C34.1299 24.036 33.5899 25.2 32.5099 26.064C31.4299 26.928 29.9899 27.36 28.1899 27.36ZM29.6659 23.976C30.9379 23.976 31.9699 23.652 32.7619 23.004C33.5779 22.356 33.9859 21.516 33.9859 20.484V18.072H29.1259C28.2139 18.072 27.4819 18.336 26.9299 18.864C26.3779 19.392 26.1019 20.088 26.1019 20.952C26.1019 21.888 26.4139 22.632 27.0379 23.184C27.6859 23.712 28.5619 23.976 29.6659 23.976Z" fill="white"/>
<path d="M43.9439 27V7.2H48.3359V10.98H49.5599L48.3359 12.024C48.3359 10.392 48.8039 9.12 49.7399 8.208C50.6999 7.296 52.0079 6.84 53.6639 6.84C55.6079 6.84 57.1559 7.488 58.3079 8.784C59.4839 10.08 60.0719 11.82 60.0719 14.004V27H55.5719V14.472C55.5719 13.272 55.2599 12.348 54.6359 11.7C54.0119 11.052 53.1359 10.728 52.0079 10.728C50.9039 10.728 50.0279 11.064 49.3799 11.736C48.7559 12.408 48.4439 13.368 48.4439 14.616V27H43.9439Z" fill="white"/>
<path d="M65.6378 27V0.720001H70.1378V14.976H73.2698L78.0938 7.2H83.1338L77.1578 16.776L83.2418 27H78.0938L73.2698 18.792H70.1378V27H65.6378Z" fill="white"/>
<path d="M92.2278 27L85.6038 0.720001H90.2838L94.2438 17.856C94.4598 18.696 94.6638 19.596 94.8558 20.556C95.0478 21.516 95.1918 22.296 95.2878 22.896C95.3838 22.296 95.5158 21.516 95.6838 20.556C95.8518 19.596 96.0318 18.684 96.2238 17.82L100.148 0.720001H104.684L98.0598 27H92.2278Z" fill="white"/>
<path d="M116.73 27.324C115.05 27.324 113.586 27.012 112.338 26.388C111.114 25.74 110.154 24.84 109.458 23.688C108.786 22.512 108.45 21.132 108.45 19.548V14.652C108.45 13.068 108.786 11.7 109.458 10.548C110.154 9.372 111.114 8.472 112.338 7.848C113.586 7.2 115.05 6.876 116.73 6.876C118.434 6.876 119.898 7.2 121.122 7.848C122.346 8.472 123.294 9.372 123.966 10.548C124.662 11.7 125.01 13.056 125.01 14.616V19.548C125.01 21.132 124.662 22.512 123.966 23.688C123.294 24.84 122.346 25.74 121.122 26.388C119.898 27.012 118.434 27.324 116.73 27.324ZM116.73 23.4C117.93 23.4 118.854 23.076 119.502 22.428C120.174 21.756 120.51 20.796 120.51 19.548V14.652C120.51 13.38 120.174 12.42 119.502 11.772C118.854 11.124 117.93 10.8 116.73 10.8C115.554 10.8 114.63 11.124 113.958 11.772C113.286 12.42 112.95 13.38 112.95 14.652V19.548C112.95 20.796 113.286 21.756 113.958 22.428C114.63 23.076 115.554 23.4 116.73 23.4Z" fill="white"/>
<path d="M140.476 27C138.58 27 137.092 26.472 136.012 25.416C134.956 24.36 134.428 22.908 134.428 21.06V11.268H129.064V7.2H134.428V1.62H138.964V7.2H146.56V11.268H138.964V21.06C138.964 22.308 139.576 22.932 140.8 22.932H146.2V27H140.476Z" fill="white"/>
<path d="M159.938 27.36C158.258 27.36 156.794 27.036 155.546 26.388C154.298 25.74 153.326 24.84 152.63 23.688C151.958 22.512 151.622 21.144 151.622 19.584V14.616C151.622 13.056 151.958 11.7 152.63 10.548C153.326 9.372 154.298 8.46 155.546 7.812C156.794 7.164 158.258 6.84 159.938 6.84C161.594 6.84 163.034 7.164 164.258 7.812C165.506 8.46 166.466 9.372 167.138 10.548C167.834 11.7 168.182 13.056 168.182 14.616V18.18H155.978V19.584C155.978 20.976 156.314 22.032 156.986 22.752C157.658 23.448 158.654 23.796 159.974 23.796C160.982 23.796 161.798 23.628 162.422 23.292C163.046 22.932 163.442 22.416 163.61 21.744H168.038C167.702 23.448 166.79 24.816 165.302 25.848C163.838 26.856 162.05 27.36 159.938 27.36ZM163.826 15.66V14.58C163.826 13.212 163.502 12.168 162.854 11.448C162.206 10.704 161.234 10.332 159.938 10.332C158.642 10.332 157.658 10.704 156.986 11.448C156.314 12.192 155.978 13.248 155.978 14.616V15.372L164.15 15.3L163.826 15.66Z" fill="white"/>
<path d="M180.732 27.324C179.22 27.324 177.9 27.084 176.772 26.604C175.644 26.124 174.756 25.464 174.108 24.624C173.484 23.76 173.148 22.752 173.1 21.6H177.6C177.648 22.224 177.948 22.728 178.5 23.112C179.076 23.496 179.82 23.688 180.732 23.688H182.316C183.42 23.688 184.248 23.472 184.8 23.04C185.352 22.608 185.628 22.02 185.628 21.276C185.628 20.58 185.376 20.04 184.872 19.656C184.392 19.248 183.636 18.984 182.604 18.864L180.156 18.504C177.9 18.192 176.244 17.592 175.188 16.704C174.132 15.816 173.604 14.484 173.604 12.708C173.604 10.86 174.228 9.432 175.476 8.424C176.724 7.392 178.56 6.876 180.984 6.876H182.352C184.56 6.876 186.324 7.368 187.644 8.352C188.964 9.336 189.672 10.656 189.768 12.312H185.268C185.196 11.784 184.896 11.352 184.368 11.016C183.864 10.68 183.192 10.512 182.352 10.512H180.984C179.952 10.512 179.196 10.704 178.716 11.088C178.26 11.448 178.032 11.988 178.032 12.708C178.032 13.38 178.236 13.884 178.644 14.22C179.052 14.532 179.712 14.76 180.624 14.904L183.18 15.264C185.532 15.6 187.26 16.236 188.364 17.172C189.492 18.084 190.056 19.44 190.056 21.24C190.056 23.16 189.396 24.66 188.076 25.74C186.78 26.796 184.86 27.324 182.316 27.324H180.732Z" fill="white"/>
</svg>
