<svg width='30' height='30' viewBox='0 0 24 24' xmlns='http://www.w3.org/2000/svg' xmlns:xlink='http://www.w3.org/1999/xlink'><rect width='30' height='30' stroke='none' fill='#000000' opacity='0'/>


<g transform="matrix(0.84 0 0 0.84 12 12)" >
<path style="stroke: none; stroke-width: 1; stroke-dasharray: none; stroke-linecap: butt; stroke-dashoffset: 0; stroke-linejoin: miter; stroke-miterlimit: 4; fill: rgb(255,255,255); fill-rule: nonzero; opacity: 1;" transform=" translate(-11.96, -11.99)" d="M 21.5 9.19 L 12.71 0.39 C 12.522233400094445 0.20068734917690356 12.26663753637056 0.09420167565833004 12 0.09420167565833004 C 11.733362463629442 0.09420167565833004 11.477766599905557 0.20068734917690356 11.290000000000001 0.39 L 2.5 9.19 C 2.2186713566812712 9.477005753125527 2.1364950154025166 9.904545547247341 2.2913790456927408 10.275394633857736 C 2.4462630759829644 10.646243720468131 2.8081102801510918 10.88833838678566 3.2099999999999995 10.889999999999999 L 8.21 10.889999999999999 C 8.3480711874577 10.889999999999999 8.46 11.0019288125423 8.46 11.139999999999999 L 8.46 22.89 C 8.46 23.442284749830794 8.907715250169208 23.89 9.46 23.89 L 14.46 23.89 C 15.012284749830794 23.89 15.46 23.442284749830794 15.46 22.89 L 15.46 11.14 C 15.46 11.001928812542301 15.571928812542302 10.89 15.71 10.89 L 20.71 10.89 C 21.11188971984891 10.888338386785664 21.473736924017036 10.646243720468135 21.628620954307262 10.275394633857738 C 21.783504984597485 9.904545547247343 21.701328643318732 9.477005753125528 21.42 9.190000000000001 Z" stroke-linecap="round" />
</g>
</svg>